<svg width="291" height="407" viewBox="0 0 291 407" fill="none" xmlns="http://www.w3.org/2000/svg">
<path d="M198.6 53.7666L251.815 146.893L198.6 240.02L92.1706 240.02L38.9558 146.893L92.1706 53.7666L198.6 53.7666Z" fill="#DC8563"/>
<path d="M145.206 54.2772L225.314 100.527V193.027L145.206 239.277L65.099 193.027V100.527L145.206 54.2772Z" fill="white"/>
<path d="M120.384 118.124L82.1848 127.48L120.384 140.345V118.124Z" fill="#DC8563"/>
<path d="M172.409 118.124L210.608 127.48L172.409 140.345V118.124Z" fill="#DC8563"/>
<path d="M146.943 203.5L117.871 171.922L176.014 171.922L146.943 203.5Z" fill="#DC8563"/>
<path d="M119.162 119.293V171.922" stroke="#DC8563" stroke-width="2"/>
<path d="M173.565 119.293V171.922" stroke="#DC8563" stroke-width="2"/>
<path d="M87.9082 252.621L129.58 378.931V407H87.9082V252.621Z" fill="#DC8563"/>
<path d="M39.3555 340.929L81.0268 320.454V407H39.3555V340.929Z" fill="#DC8563"/>
<path d="M250.027 340.929L208.356 320.454V407H250.027V340.929Z" fill="#DC8563"/>
<path d="M159.676 377.761L201.347 252.621V407H159.676V377.761Z" fill="#DC8563"/>
<rect x="87.9082" y="383.609" width="41.6713" height="23.3908" fill="white"/>
<rect x="159.676" y="383.609" width="41.6713" height="23.3908" fill="white"/>
<path d="M144.691 327.471L97.5761 253.79L191.807 253.79L144.691 327.471Z" fill="#DC8563"/>
<path d="M201.41 156.67C199.559 156.67 197.783 155.935 196.474 154.625C195.165 153.316 194.429 151.541 194.429 149.689C194.429 145.035 201.41 137.181 201.41 137.181C201.41 137.181 208.391 145.035 208.391 149.689C208.391 151.541 207.656 153.316 206.347 154.625C205.038 155.935 203.262 156.67 201.41 156.67Z" fill="#A4B5ED"/>
</svg>
