<svg width="32" height="31" viewBox="0 0 32 31" fill="none" xmlns="http://www.w3.org/2000/svg">
<path d="M24.7067 14.8155C24.893 14.9976 24.9976 15.2437 24.9976 15.5001C24.9976 15.7565 24.893 16.0025 24.7067 16.1847L18.0401 22.643C17.9485 22.7382 17.8381 22.8145 17.7155 22.8675C17.5928 22.9204 17.4604 22.9489 17.3261 22.9512C17.1918 22.9535 17.0585 22.9296 16.934 22.8808C16.8094 22.8321 16.6963 22.7596 16.6014 22.6676C16.5064 22.5756 16.4315 22.466 16.3813 22.3454C16.331 22.2248 16.3063 22.0956 16.3086 21.9655C16.311 21.8354 16.3404 21.7071 16.395 21.5883C16.4497 21.4695 16.5285 21.3625 16.6267 21.2738L21.5867 16.4688L8.00008 16.4688C7.73486 16.4688 7.48051 16.3668 7.29297 16.1851C7.10544 16.0034 7.00008 15.757 7.00008 15.5001C7.00008 15.2432 7.10544 14.9968 7.29297 14.8151C7.48051 14.6334 7.73486 14.5313 8.00008 14.5313L21.5867 14.5313L16.6267 9.72634C16.4501 9.5427 16.3539 9.2998 16.3585 9.04883C16.3631 8.79786 16.468 8.5584 16.6513 8.38091C16.8345 8.20342 17.0817 8.10175 17.3407 8.09732C17.5998 8.09289 17.8505 8.18605 18.0401 8.35717L24.7067 14.8155Z" fill="white"/>
</svg>
